<mxfile host="app.diagrams.net" modified="2020-11-05T14:20:59.468Z" agent="5.0 (X11; Linux x86_64) AppleWebKit/537.36 (KHTML, like Gecko) Chrome/86.0.4240.183 Safari/537.36" etag="LWXTS9GDKmop38dczmT6" version="13.9.1" type="github">
  <diagram id="T2WRGTQkFGnkdedoCf0m" name="Page-1">
    <mxGraphModel dx="1673" dy="948" grid="1" gridSize="10" guides="1" tooltips="1" connect="1" arrows="1" fold="1" page="1" pageScale="1" pageWidth="850" pageHeight="1100" math="0" shadow="0">
      <root>
        <mxCell id="0" />
        <mxCell id="1" parent="0" />
        <mxCell id="EvPLrdzUvim9yfDWyJJj-3" style="edgeStyle=orthogonalEdgeStyle;rounded=0;orthogonalLoop=1;jettySize=auto;html=1;" edge="1" parent="1" source="EvPLrdzUvim9yfDWyJJj-1">
          <mxGeometry relative="1" as="geometry">
            <mxPoint x="140" y="350" as="targetPoint" />
            <Array as="points">
              <mxPoint x="140" y="410" />
            </Array>
          </mxGeometry>
        </mxCell>
        <mxCell id="EvPLrdzUvim9yfDWyJJj-1" value="&lt;font style=&quot;font-size: 24px&quot;&gt;PC&amp;nbsp; &amp;nbsp; Instr&amp;nbsp; ImmSel&amp;nbsp; RFEn&amp;nbsp; BrEq&amp;nbsp; BrLt&amp;nbsp; BSel&amp;nbsp; ALUSel&amp;nbsp; DMEn&lt;br&gt;&lt;br&gt;&lt;br&gt;Controller&lt;/font&gt;" style="rounded=0;whiteSpace=wrap;html=1;" vertex="1" parent="1">
          <mxGeometry x="80" y="620" width="720" height="110" as="geometry" />
        </mxCell>
        <mxCell id="EvPLrdzUvim9yfDWyJJj-2" value="" style="endArrow=classic;html=1;" edge="1" parent="1">
          <mxGeometry width="50" height="50" relative="1" as="geometry">
            <mxPoint x="410" y="520" as="sourcePoint" />
            <mxPoint x="460" y="470" as="targetPoint" />
          </mxGeometry>
        </mxCell>
        <mxCell id="EvPLrdzUvim9yfDWyJJj-7" style="edgeStyle=orthogonalEdgeStyle;rounded=0;orthogonalLoop=1;jettySize=auto;html=1;exitX=0.5;exitY=0;exitDx=0;exitDy=0;" edge="1" parent="1" source="EvPLrdzUvim9yfDWyJJj-4" target="EvPLrdzUvim9yfDWyJJj-8">
          <mxGeometry relative="1" as="geometry">
            <mxPoint x="220" y="300.2352941176471" as="targetPoint" />
          </mxGeometry>
        </mxCell>
        <mxCell id="EvPLrdzUvim9yfDWyJJj-4" value="1&lt;br&gt;&lt;br&gt;&lt;br&gt;0" style="shape=trapezoid;perimeter=trapezoidPerimeter;whiteSpace=wrap;html=1;fixedSize=1;direction=south;" vertex="1" parent="1">
          <mxGeometry x="110" y="240" width="60" height="120" as="geometry" />
        </mxCell>
        <mxCell id="EvPLrdzUvim9yfDWyJJj-5" value="" style="endArrow=classic;html=1;" edge="1" parent="1">
          <mxGeometry width="50" height="50" relative="1" as="geometry">
            <mxPoint x="410" y="500" as="sourcePoint" />
            <mxPoint x="460" y="450" as="targetPoint" />
          </mxGeometry>
        </mxCell>
        <mxCell id="EvPLrdzUvim9yfDWyJJj-6" value="" style="endArrow=classic;html=1;" edge="1" parent="1">
          <mxGeometry width="50" height="50" relative="1" as="geometry">
            <mxPoint x="410" y="500" as="sourcePoint" />
            <mxPoint x="460" y="450" as="targetPoint" />
          </mxGeometry>
        </mxCell>
        <mxCell id="EvPLrdzUvim9yfDWyJJj-8" value="PC" style="rounded=1;whiteSpace=wrap;html=1;" vertex="1" parent="1">
          <mxGeometry x="200" y="270" width="30" height="60" as="geometry" />
        </mxCell>
      </root>
    </mxGraphModel>
  </diagram>
</mxfile>
